<svg width="192" height="192" viewBox="0 0 192 192" fill="none" xmlns="http://www.w3.org/2000/svg">
  <!-- Background -->
  <rect width="192" height="192" rx="32" fill="url(#gradient)"/>
  
  <!-- Pickleball Paddle -->
  <g transform="translate(48, 32)">
    <!-- Paddle Handle -->
    <rect x="42" y="100" width="12" height="40" rx="6" fill="white" opacity="0.9"/>
    
    <!-- Paddle Face -->
    <ellipse cx="48" cy="60" rx="32" ry="40" fill="white" opacity="0.95"/>
    
    <!-- Paddle Holes -->
    <circle cx="38" cy="45" r="3" fill="#667eea"/>
    <circle cx="48" cy="35" r="3" fill="#667eea"/>
    <circle cx="58" cy="45" r="3" fill="#667eea"/>
    <circle cx="38" cy="60" r="3" fill="#667eea"/>
    <circle cx="58" cy="60" r="3" fill="#667eea"/>
    <circle cx="38" cy="75" r="3" fill="#667eea"/>
    <circle cx="48" cy="85" r="3" fill="#667eea"/>
    <circle cx="58" cy="75" r="3" fill="#667eea"/>
  </g>
  
  <!-- Ball -->
  <circle cx="120" cy="80" r="16" fill="white" opacity="0.9"/>
  <circle cx="115" cy="75" r="2" fill="#667eea"/>
  <circle cx="125" cy="75" r="2" fill="#667eea"/>
  <circle cx="110" cy="85" r="2" fill="#667eea"/>
  <circle cx="120" cy="85" r="2" fill="#667eea"/>
  <circle cx="130" cy="85" r="2" fill="#667eea"/>
  
  <!-- Text -->
  <text x="96" y="140" text-anchor="middle" fill="white" font-family="system-ui" font-size="16" font-weight="600">PICKLEBALL</text>
  <text x="96" y="160" text-anchor="middle" fill="white" font-family="system-ui" font-size="12" opacity="0.8">INCANTO CLUB</text>
  
  <!-- Gradient Definition -->
  <defs>
    <linearGradient id="gradient" x1="0%" y1="0%" x2="100%" y2="100%">
      <stop offset="0%" style="stop-color:#667eea;stop-opacity:1" />
      <stop offset="100%" style="stop-color:#764ba2;stop-opacity:1" />
    </linearGradient>
  </defs>
</svg>
